<?xml version="1.0" standalone="no"?>
<svg xmlns:xlink="http://www.w3.org/1999/xlink" id="wave" style="transform:rotate(180deg); transition: 0.3s" viewBox="0 0 1440 100" version="1.1" xmlns="http://www.w3.org/2000/svg"><defs><linearGradient id="sw-gradient-0" x1="0" x2="0" y1="1" y2="0"><stop stop-color="rgba(255, 249, 234, 1)" offset="0%"/><stop stop-color="rgba(255, 249, 234, 1)" offset="100%"/></linearGradient></defs><path style="transform:translate(0, 0px); opacity:1" fill="url(#sw-gradient-0)" d="M0,30L40,28.3C80,27,160,23,240,33.3C320,43,400,67,480,63.3C560,60,640,30,720,25C800,20,880,40,960,53.3C1040,67,1120,73,1200,73.3C1280,73,1360,67,1440,58.3C1520,50,1600,40,1680,30C1760,20,1840,10,1920,8.3C2000,7,2080,13,2160,18.3C2240,23,2320,27,2400,38.3C2480,50,2560,70,2640,70C2720,70,2800,50,2880,36.7C2960,23,3040,17,3120,18.3C3200,20,3280,30,3360,36.7C3440,43,3520,47,3600,50C3680,53,3760,57,3840,48.3C3920,40,4000,20,4080,20C4160,20,4240,40,4320,50C4400,60,4480,60,4560,53.3C4640,47,4720,33,4800,30C4880,27,4960,33,5040,31.7C5120,30,5200,20,5280,15C5360,10,5440,10,5520,21.7C5600,33,5680,57,5720,68.3L5760,80L5760,100L5720,100C5680,100,5600,100,5520,100C5440,100,5360,100,5280,100C5200,100,5120,100,5040,100C4960,100,4880,100,4800,100C4720,100,4640,100,4560,100C4480,100,4400,100,4320,100C4240,100,4160,100,4080,100C4000,100,3920,100,3840,100C3760,100,3680,100,3600,100C3520,100,3440,100,3360,100C3280,100,3200,100,3120,100C3040,100,2960,100,2880,100C2800,100,2720,100,2640,100C2560,100,2480,100,2400,100C2320,100,2240,100,2160,100C2080,100,2000,100,1920,100C1840,100,1760,100,1680,100C1600,100,1520,100,1440,100C1360,100,1280,100,1200,100C1120,100,1040,100,960,100C880,100,800,100,720,100C640,100,560,100,480,100C400,100,320,100,240,100C160,100,80,100,40,100L0,100Z"/></svg>