<?xml version="1.0" standalone="no"?>
<svg xmlns:xlink="http://www.w3.org/1999/xlink" id="wave" style="transform:rotate(180deg); transition: 0.3s" viewBox="0 0 1440 100" version="1.1" xmlns="http://www.w3.org/2000/svg"><defs><linearGradient id="sw-gradient-0" x1="0" x2="0" y1="1" y2="0"><stop stop-color="rgba(255, 249, 234, 1)" offset="0%"/><stop stop-color="rgba(255, 249, 234, 1)" offset="100%"/></linearGradient></defs><path style="transform:translate(0, 0px); opacity:1" fill="url(#sw-gradient-0)" d="M0,50L13.3,56.7C26.7,63,53,77,80,71.7C106.7,67,133,43,160,35C186.7,27,213,33,240,38.3C266.7,43,293,47,320,48.3C346.7,50,373,50,400,53.3C426.7,57,453,63,480,70C506.7,77,533,83,560,85C586.7,87,613,83,640,70C666.7,57,693,33,720,20C746.7,7,773,3,800,10C826.7,17,853,33,880,48.3C906.7,63,933,77,960,70C986.7,63,1013,37,1040,26.7C1066.7,17,1093,23,1120,31.7C1146.7,40,1173,50,1200,60C1226.7,70,1253,80,1280,76.7C1306.7,73,1333,57,1360,45C1386.7,33,1413,27,1440,20C1466.7,13,1493,7,1520,8.3C1546.7,10,1573,20,1600,31.7C1626.7,43,1653,57,1680,65C1706.7,73,1733,77,1760,68.3C1786.7,60,1813,40,1840,31.7C1866.7,23,1893,27,1907,28.3L1920,30L1920,100L1906.7,100C1893.3,100,1867,100,1840,100C1813.3,100,1787,100,1760,100C1733.3,100,1707,100,1680,100C1653.3,100,1627,100,1600,100C1573.3,100,1547,100,1520,100C1493.3,100,1467,100,1440,100C1413.3,100,1387,100,1360,100C1333.3,100,1307,100,1280,100C1253.3,100,1227,100,1200,100C1173.3,100,1147,100,1120,100C1093.3,100,1067,100,1040,100C1013.3,100,987,100,960,100C933.3,100,907,100,880,100C853.3,100,827,100,800,100C773.3,100,747,100,720,100C693.3,100,667,100,640,100C613.3,100,587,100,560,100C533.3,100,507,100,480,100C453.3,100,427,100,400,100C373.3,100,347,100,320,100C293.3,100,267,100,240,100C213.3,100,187,100,160,100C133.3,100,107,100,80,100C53.3,100,27,100,13,100L0,100Z"/></svg>