<?xml version="1.0" standalone="no"?>
<svg xmlns:xlink="http://www.w3.org/1999/xlink" id="wave" style="transform:rotate(0deg); transition: 0.3s" viewBox="0 0 1440 100" version="1.1" xmlns="http://www.w3.org/2000/svg"><defs><linearGradient id="sw-gradient-0" x1="0" x2="0" y1="1" y2="0"><stop stop-color="rgba(255, 249, 234, 1)" offset="0%"/><stop stop-color="rgba(255, 249, 234, 1)" offset="100%"/></linearGradient></defs><path style="transform:translate(0, 0px); opacity:1" fill="url(#sw-gradient-0)" d="M0,60L30,56.7C60,53,120,47,180,45C240,43,300,47,360,40C420,33,480,17,540,20C600,23,660,47,720,60C780,73,840,77,900,68.3C960,60,1020,40,1080,36.7C1140,33,1200,47,1260,43.3C1320,40,1380,20,1440,20C1500,20,1560,40,1620,51.7C1680,63,1740,67,1800,71.7C1860,77,1920,83,1980,83.3C2040,83,2100,77,2160,70C2220,63,2280,57,2340,56.7C2400,57,2460,63,2520,61.7C2580,60,2640,50,2700,48.3C2760,47,2820,53,2880,55C2940,57,3000,53,3060,56.7C3120,60,3180,70,3240,71.7C3300,73,3360,67,3420,53.3C3480,40,3540,20,3600,16.7C3660,13,3720,27,3780,30C3840,33,3900,27,3960,21.7C4020,17,4080,13,4140,13.3C4200,13,4260,17,4290,18.3L4320,20L4320,100L4290,100C4260,100,4200,100,4140,100C4080,100,4020,100,3960,100C3900,100,3840,100,3780,100C3720,100,3660,100,3600,100C3540,100,3480,100,3420,100C3360,100,3300,100,3240,100C3180,100,3120,100,3060,100C3000,100,2940,100,2880,100C2820,100,2760,100,2700,100C2640,100,2580,100,2520,100C2460,100,2400,100,2340,100C2280,100,2220,100,2160,100C2100,100,2040,100,1980,100C1920,100,1860,100,1800,100C1740,100,1680,100,1620,100C1560,100,1500,100,1440,100C1380,100,1320,100,1260,100C1200,100,1140,100,1080,100C1020,100,960,100,900,100C840,100,780,100,720,100C660,100,600,100,540,100C480,100,420,100,360,100C300,100,240,100,180,100C120,100,60,100,30,100L0,100Z"/></svg>